<svg width="17" height="24" viewBox="0 0 17 24" fill="none" xmlns="http://www.w3.org/2000/svg">
<path fill-rule="evenodd" clip-rule="evenodd" d="M1 24C1.55229 24 2 23.5523 2 23L2 13.6726L15.7849 21.8879C15.9079 21.9612 16.0475 21.9999 16.1897 22C16.3318 22.0001 16.4715 21.9618 16.5947 21.8887C16.7178 21.8156 16.8201 21.7105 16.8913 21.5838C16.9624 21.4571 16.9999 21.3134 17 21.167L17 2.83335C17 2.61233 16.9147 2.40036 16.7629 2.24408C16.6111 2.0878 16.4052 2 16.1904 2C16.048 2.00003 15.9081 2.03885 15.7849 2.1125L2 10.3278L2 1C2 0.447715 1.55228 1.35048e-06 0.999998 1.39876e-06C0.447714 1.44705e-06 -2.05901e-06 0.447717 -2.01072e-06 1L8.58291e-07 12.0002L-8.74228e-08 23C-3.91406e-08 23.5523 0.447716 24 1 24Z" fill="#F0F0F0"/>
</svg>
