<svg width="17" height="24" viewBox="0 0 17 24" fill="none" xmlns="http://www.w3.org/2000/svg">
<path fill-rule="evenodd" clip-rule="evenodd" d="M16 0C15.4477 0 15 0.447716 15 1V10.3274L1.21514 2.11213C1.09211 2.03882 0.9525 2.00014 0.810345 2C0.66819 1.99986 0.528505 2.03825 0.405338 2.11131C0.282172 2.18438 0.179867 2.28954 0.108712 2.41622C0.0375581 2.54291 6.35753e-05 2.68664 0 2.83298V21.1667C0 21.3877 0.0852922 21.5996 0.237113 21.7559C0.388934 21.9122 0.594847 22 0.809554 22C0.95202 22 1.09194 21.9612 1.21514 21.8875L15 13.6722V23C15 23.5523 15.4477 24 16 24C16.5523 24 17 23.5523 17 23V11.9998V1C17 0.447716 16.5523 0 16 0Z" fill="#F0F0F0"/>
</svg>
